<?xml version="1.0" encoding="UTF-8" standalone="no"?>
<!DOCTYPE svg PUBLIC "-//W3C//DTD SVG 1.1//EN" "http://www.w3.org/Graphics/SVG/1.1/DTD/svg11.dtd">
<svg width="100%" height="100%" viewBox="0 0 1022 495" version="1.1" xmlns="http://www.w3.org/2000/svg" xmlns:xlink="http://www.w3.org/1999/xlink" xml:space="preserve" xmlns:serif="http://www.serif.com/" style="fill-rule:evenodd;clip-rule:evenodd;stroke-linejoin:round;stroke-miterlimit:2;">
    <g transform="matrix(1,0,0,1,-1842.9,-4109.59)">
        <g id="scoreboard" transform="matrix(0.829817,0,0,0.838412,1842.9,3505.42)">
            <rect x="0" y="720.615" width="1231.07" height="589.854" style="fill:none;"/>
            <g transform="matrix(1.20508,0,0,1.19273,-52.9442,-189.405)">
                <g>
                    <g transform="matrix(223,0,0,223,68.7932,944.679)">
                        <path d="M0.057,-0L0.204,-0L0.204,-0.336L0.263,-0.394L0.351,-0.394L0.382,-0.363L0.382,-0L0.529,-0L0.529,-0.412L0.437,-0.504L0.268,-0.504L0.204,-0.441L0.204,-0.69L0.057,-0.69L0.057,-0Z" style="fill:rgb(218,170,0);fill-rule:nonzero;"/>
                    </g>
                    <g transform="matrix(223,0,0,223,198.802,944.679)">
                        <path d="M0.122,-0L0.332,-0L0.403,-0.071L0.411,-0L0.523,-0L0.523,-0.412L0.43,-0.504L0.135,-0.504L0.054,-0.423L0.054,-0.356L0.205,-0.356L0.205,-0.395L0.222,-0.412L0.35,-0.412L0.376,-0.386L0.376,-0.302L0.122,-0.302L0.039,-0.219L0.039,-0.083L0.122,-0ZM0.209,-0.095L0.187,-0.117L0.187,-0.201L0.209,-0.223L0.376,-0.223L0.376,-0.143L0.329,-0.095L0.209,-0.095Z" style="fill:rgb(218,170,0);fill-rule:nonzero;"/>
                    </g>
                    <g transform="matrix(223,0,0,223,327.25,944.679)">
                        <path d="M0.057,-0L0.204,-0L0.204,-0.335L0.263,-0.394L0.341,-0.394L0.372,-0.363L0.372,-0L0.519,-0L0.519,-0.339L0.574,-0.394L0.656,-0.394L0.687,-0.363L0.687,-0L0.834,-0L0.834,-0.412L0.742,-0.504L0.56,-0.504L0.493,-0.437L0.426,-0.504L0.253,-0.504L0.177,-0.429L0.169,-0.504L0.057,-0.504L0.057,-0Z" style="fill:rgb(218,170,0);fill-rule:nonzero;"/>
                    </g>
                    <g transform="matrix(223,0,0,223,525.274,944.679)">
                        <path d="M0.057,-0L0.204,-0L0.204,-0.335L0.263,-0.394L0.341,-0.394L0.372,-0.363L0.372,-0L0.519,-0L0.519,-0.339L0.574,-0.394L0.656,-0.394L0.687,-0.363L0.687,-0L0.834,-0L0.834,-0.412L0.742,-0.504L0.56,-0.504L0.493,-0.437L0.426,-0.504L0.253,-0.504L0.177,-0.429L0.169,-0.504L0.057,-0.504L0.057,-0Z" style="fill:rgb(218,170,0);fill-rule:nonzero;"/>
                    </g>
                    <g transform="matrix(223,0,0,223,723.298,944.679)">
                        <path d="M0.139,-0L0.447,-0L0.526,-0.079L0.526,-0.153L0.38,-0.153L0.38,-0.111L0.363,-0.094L0.219,-0.094L0.19,-0.122L0.19,-0.219L0.526,-0.219L0.526,-0.412L0.433,-0.505L0.139,-0.505L0.047,-0.412L0.047,-0.093L0.139,-0ZM0.19,-0.303L0.19,-0.385L0.217,-0.412L0.357,-0.412L0.384,-0.385L0.384,-0.303L0.19,-0.303Z" style="fill:rgb(218,170,0);fill-rule:nonzero;"/>
                    </g>
                    <g transform="matrix(223,0,0,223,850.631,944.679)">
                        <path d="M0.057,-0L0.204,-0L0.204,-0.324L0.262,-0.382L0.376,-0.382L0.376,-0.504L0.254,-0.504L0.177,-0.427L0.169,-0.504L0.057,-0.504L0.057,-0Z" style="fill:rgb(218,170,0);fill-rule:nonzero;"/>
                    </g>
                    <path d="M77.963,944.679C77.963,946.635 79.548,948.221 81.504,948.221L114.285,948.221C116.241,948.221 117.827,946.635 117.827,944.679L117.827,871.236C117.827,871.236 128.891,860.359 128.891,860.359C128.892,860.359 145.599,860.359 145.599,860.359C145.599,860.359 150.438,865.197 150.438,865.197C150.438,865.197 150.438,944.679 150.438,944.679C150.438,946.635 152.023,948.221 153.979,948.221L186.76,948.221C188.716,948.221 190.302,946.635 190.302,944.679L190.302,852.803C190.302,851.864 189.929,850.963 189.265,850.299L168.749,829.783C168.084,829.119 167.184,828.746 166.244,828.746L128.557,828.746C127.628,828.746 126.735,829.111 126.073,829.763L117.827,837.88C117.827,837.88 117.827,790.809 117.827,790.809C117.827,788.853 116.241,787.268 114.285,787.268L81.504,787.268C79.548,787.268 77.963,788.853 77.963,790.809L77.963,944.679ZM81.504,944.679L114.285,944.679L114.285,869.751L127.442,856.817L147.066,856.817L153.979,863.73L153.979,944.679L186.76,944.679L186.76,852.803L166.244,832.287L128.557,832.287L114.285,846.336L114.285,790.809L81.504,790.809L81.504,944.679Z" style="fill:white;"/>
                    <path d="M223.504,947.184C224.168,947.848 225.069,948.221 226.008,948.221L272.838,948.221C273.778,948.221 274.678,947.848 275.343,947.184L285.975,936.551C285.975,936.551 286.936,945.076 286.936,945.076C287.138,946.867 288.653,948.221 290.455,948.221L315.431,948.221C317.387,948.221 318.973,946.635 318.973,944.679L318.973,852.803C318.973,851.857 318.594,850.951 317.922,850.285L297.183,829.769C296.52,829.113 295.625,828.746 294.692,828.746L228.907,828.746C227.968,828.746 227.067,829.119 226.403,829.783L208.34,847.846C207.676,848.51 207.303,849.411 207.303,850.35L207.303,865.291C207.303,867.247 208.888,868.833 210.844,868.833L244.517,868.833C246.473,868.833 248.059,867.247 248.059,865.291L248.059,858.061C248.059,858.061 249.775,856.345 249.775,856.345C249.775,856.345 275.385,856.345 275.385,856.345C275.385,856.345 279.109,860.068 279.109,860.068C279.109,860.068 279.109,873.792 279.109,873.792C279.109,873.792 226.008,873.792 226.008,873.792C225.069,873.792 224.168,874.165 223.504,874.829L204.995,893.338C204.331,894.002 203.958,894.903 203.958,895.842L203.958,926.17C203.958,927.109 204.331,928.01 204.995,928.675L223.504,947.184ZM226.008,944.679L272.838,944.679L288.671,928.846L290.455,944.679L315.431,944.679L315.431,852.803L294.692,832.287L228.907,832.287L210.844,850.35L210.844,865.291L244.517,865.291L244.517,856.594L248.308,852.803L276.852,852.803L282.65,858.601L282.65,877.333L226.008,877.333L207.499,895.842L207.499,926.17L226.008,944.679ZM245.409,923.494L240.503,918.588L240.503,899.856L245.409,894.95L282.65,894.95L282.65,912.79L272.169,923.494L245.409,923.494ZM246.876,919.953L244.045,917.121C244.045,917.121 244.045,901.323 244.045,901.323C244.045,901.323 246.876,898.492 246.876,898.492C246.876,898.492 279.109,898.492 279.109,898.492C279.109,898.492 279.109,911.345 279.109,911.345C279.109,911.345 270.68,919.953 270.68,919.953L246.876,919.953Z" style="fill:white;"/>
                    <path d="M336.42,944.679C336.42,946.635 338.005,948.221 339.961,948.221L372.742,948.221C374.698,948.221 376.284,946.635 376.284,944.679L376.284,871.441C376.284,871.441 387.366,860.359 387.366,860.359C387.366,860.359 401.826,860.359 401.826,860.359C401.826,860.359 406.665,865.197 406.665,865.197C406.665,865.197 406.665,944.679 406.665,944.679C406.665,946.635 408.25,948.221 410.206,948.221L442.987,948.221C444.943,948.221 446.529,946.635 446.529,944.679L446.529,870.549C446.529,870.549 456.719,860.359 456.719,860.359C456.719,860.359 472.071,860.359 472.071,860.359C472.071,860.359 476.91,865.197 476.91,865.197C476.91,865.197 476.91,944.679 476.91,944.679C476.91,946.635 478.495,948.221 480.451,948.221L513.232,948.221C515.188,948.221 516.774,946.635 516.774,944.679L516.774,852.803C516.774,851.864 516.401,850.963 515.737,850.299L495.221,829.783C494.556,829.119 493.656,828.746 492.716,828.746L452.13,828.746C451.191,828.746 450.29,829.119 449.626,829.783L437.189,842.22C437.189,842.22 424.753,829.783 424.753,829.783C424.088,829.119 423.188,828.746 422.248,828.746L383.669,828.746C382.738,828.746 381.844,829.112 381.182,829.766L369.464,841.33C369.464,841.33 368.459,831.912 368.459,831.912C368.267,830.111 366.748,828.746 364.937,828.746L339.961,828.746C338.005,828.746 336.42,830.331 336.42,832.287L336.42,944.679ZM339.961,944.679L372.742,944.679L372.742,869.974L385.899,856.817L403.293,856.817L410.206,863.73L410.206,944.679L442.987,944.679L442.987,869.082L455.252,856.817L473.538,856.817L480.451,863.73L480.451,944.679L513.232,944.679L513.232,852.803L492.716,832.287L452.13,832.287L437.189,847.228L422.248,832.287L383.669,832.287L366.721,849.012L364.937,832.287L339.961,832.287L339.961,944.679Z" style="fill:white;"/>
                    <path d="M534.444,944.679C534.444,946.635 536.029,948.221 537.985,948.221L570.766,948.221C572.722,948.221 574.308,946.635 574.308,944.679L574.308,871.441C574.308,871.441 585.39,860.359 585.39,860.359C585.39,860.359 599.85,860.359 599.85,860.359C599.85,860.359 604.689,865.197 604.689,865.197C604.689,865.197 604.689,944.679 604.689,944.679C604.689,946.635 606.274,948.221 608.23,948.221L641.011,948.221C642.967,948.221 644.553,946.635 644.553,944.679L644.553,870.549C644.553,870.549 654.743,860.359 654.743,860.359C654.743,860.359 670.095,860.359 670.095,860.359C670.095,860.359 674.934,865.197 674.934,865.197C674.934,865.197 674.934,944.679 674.934,944.679C674.934,946.635 676.519,948.221 678.475,948.221L711.256,948.221C713.212,948.221 714.798,946.635 714.798,944.679L714.798,852.803C714.798,851.864 714.425,850.963 713.761,850.299L693.245,829.783C692.58,829.119 691.68,828.746 690.74,828.746L650.154,828.746C649.215,828.746 648.314,829.119 647.65,829.783L635.213,842.22C635.213,842.22 622.777,829.783 622.777,829.783C622.112,829.119 621.212,828.746 620.272,828.746L581.693,828.746C580.762,828.746 579.868,829.112 579.206,829.766L567.488,841.33C567.488,841.33 566.483,831.912 566.483,831.912C566.291,830.111 564.772,828.746 562.961,828.746L537.985,828.746C536.029,828.746 534.444,830.331 534.444,832.287L534.444,944.679ZM537.985,944.679L570.766,944.679L570.766,869.974L583.923,856.817L601.317,856.817L608.23,863.73L608.23,944.679L641.011,944.679L641.011,869.082L653.276,856.817L671.562,856.817L678.475,863.73L678.475,944.679L711.256,944.679L711.256,852.803L690.74,832.287L650.154,832.287L635.213,847.228L620.272,832.287L581.693,832.287L564.745,849.012L562.961,832.287L537.985,832.287L537.985,944.679Z" style="fill:white;"/>
                    <path d="M751.777,947.17C752.443,947.842 753.349,948.221 754.295,948.221L822.979,948.221C823.919,948.221 824.819,947.848 825.484,947.184L843.101,929.567C843.765,928.902 844.138,928.001 844.138,927.062L844.138,910.56C844.138,908.604 842.552,907.019 840.596,907.019L808.038,907.019C806.082,907.019 804.497,908.604 804.497,910.56L804.497,918.459C804.497,918.459 802.78,920.176 802.78,920.176C802.78,920.176 773.566,920.176 773.566,920.176C773.566,920.176 769.21,915.97 769.21,915.97C769.21,915.97 769.21,899.384 769.21,899.384C769.21,899.384 840.596,899.384 840.596,899.384C842.552,899.384 844.138,897.798 844.138,895.842L844.138,852.803C844.138,851.864 843.765,850.963 843.101,850.299L822.362,829.56C821.697,828.896 820.797,828.523 819.857,828.523L754.295,828.523C753.349,828.523 752.443,828.901 751.777,829.573L731.261,850.312C730.605,850.975 730.238,851.871 730.238,852.803L730.238,923.94C730.238,924.873 730.605,925.768 731.261,926.431L751.777,947.17ZM754.295,944.679L822.979,944.679L840.596,927.062L840.596,910.56L808.038,910.56L808.038,919.926L804.247,923.717L772.135,923.717L765.668,917.473L765.668,895.842L840.596,895.842L840.596,852.803L819.857,832.064L754.295,832.064L733.779,852.803L733.779,923.94L754.295,944.679ZM765.668,877.11L765.668,858.824L771.689,852.803L802.909,852.803L808.93,858.824L808.93,877.11L765.668,877.11ZM769.21,873.569L769.21,860.291C769.21,860.291 773.156,856.345 773.156,856.345C773.156,856.345 801.442,856.345 801.442,856.345C801.442,856.345 805.389,860.291 805.389,860.291C805.389,860.291 805.389,873.569 805.389,873.569L769.21,873.569Z" style="fill:white;"/>
                    <path d="M859.801,944.679C859.801,946.635 861.386,948.221 863.342,948.221L896.123,948.221C898.079,948.221 899.665,946.635 899.665,944.679L899.665,873.894C899.665,873.894 910.524,863.035 910.524,863.035C910.524,863.035 934.479,863.035 934.479,863.035C936.435,863.035 938.021,861.449 938.021,859.493L938.021,832.287C938.021,830.331 936.435,828.746 934.479,828.746L907.273,828.746C906.334,828.746 905.433,829.119 904.769,829.783L892.856,841.695C892.856,841.695 891.841,831.921 891.841,831.921C891.653,830.117 890.133,828.746 888.318,828.746L863.342,828.746C861.386,828.746 859.801,830.331 859.801,832.287L859.801,944.679ZM863.342,944.679L896.123,944.679L896.123,872.427L909.057,859.493L934.479,859.493L934.479,832.287L907.273,832.287L890.102,849.458L888.318,832.287L863.342,832.287L863.342,944.679Z" style="fill:white;"/>
                    <g transform="matrix(235.247,0,0,235.247,68.7932,1068.68)">
                        <path d="M0.206,-0L0.489,-0L0.661,-0.369L0.833,-0L1.11,-0L1.303,-0.502L1.132,-0.502L0.985,-0.124L0.804,-0.502L0.544,-0.502L0.369,-0.124L0.222,-0.502L0.013,-0.502L0.206,-0Z" style="fill:white;fill-rule:nonzero;"/>
                    </g>
                    <g transform="matrix(235.247,0,0,235.247,364.264,1068.68)">
                        <path d="M0.163,-0L0.637,-0L0.721,-0.084L0.73,-0L0.896,-0L0.896,-0.372L0.766,-0.502L0.186,-0.502L0.093,-0.408L0.093,-0.37L0.311,-0.37L0.311,-0.377L0.322,-0.388L0.653,-0.388L0.694,-0.348L0.694,-0.305L0.162,-0.305L0.065,-0.208L0.065,-0.098L0.163,-0ZM0.299,-0.108L0.274,-0.133L0.274,-0.185L0.299,-0.21L0.694,-0.21L0.694,-0.173L0.628,-0.108L0.299,-0.108Z" style="fill:white;fill-rule:nonzero;"/>
                    </g>
                    <g transform="matrix(235.247,0,0,235.247,583.985,1068.68)">
                        <path d="M0.093,-0L0.299,-0L0.299,-0.285L0.378,-0.365L0.611,-0.365L0.611,-0.502L0.361,-0.502L0.269,-0.409L0.258,-0.502L0.093,-0.502L0.093,-0Z" style="fill:white;fill-rule:nonzero;"/>
                    </g>
                    <g transform="matrix(235.247,0,0,235.247,723.722,1068.68)">
                        <path d="M0.154,-0L0.795,-0L0.9,-0.105L0.9,-0.222L0.808,-0.314L0.281,-0.314L0.273,-0.322L0.273,-0.381L0.287,-0.394L0.695,-0.394L0.704,-0.385L0.704,-0.376L0.883,-0.376L0.883,-0.413L0.795,-0.502L0.172,-0.502L0.067,-0.397L0.067,-0.284L0.16,-0.192L0.687,-0.192L0.694,-0.184L0.694,-0.122L0.681,-0.109L0.254,-0.109L0.245,-0.118L0.245,-0.127L0.066,-0.127L0.066,-0.088L0.154,-0Z" style="fill:white;fill-rule:nonzero;"/>
                    </g>
                </g>
            </g>
            <g transform="matrix(3.10978,-0.668799,0.675727,3.0779,-3039.08,-1717.75)">
                <g>
                    <g transform="matrix(100.689,0,0,100.689,1073.46,1100.81)">
                        <path d="M0.177,0.16C0.155,0.16 0.131,0.158 0.105,0.155C0.078,0.151 0.057,0.147 0.042,0.142L0.042,0.058C0.071,0.067 0.104,0.072 0.139,0.072C0.182,0.072 0.22,0.065 0.252,0.051C0.283,0.037 0.307,0.018 0.324,-0.007C0.341,-0.032 0.349,-0.059 0.349,-0.089C0.349,-0.171 0.302,-0.215 0.209,-0.22L0.151,-0.205L0.129,-0.272C0.153,-0.275 0.18,-0.284 0.21,-0.297C0.247,-0.314 0.275,-0.335 0.294,-0.36C0.313,-0.385 0.322,-0.411 0.322,-0.439C0.322,-0.469 0.312,-0.491 0.293,-0.506C0.274,-0.52 0.25,-0.527 0.221,-0.527C0.192,-0.527 0.165,-0.522 0.141,-0.513C0.116,-0.503 0.096,-0.491 0.079,-0.477L0.039,-0.547C0.051,-0.558 0.07,-0.571 0.095,-0.584C0.12,-0.596 0.148,-0.608 0.18,-0.617C0.211,-0.626 0.243,-0.63 0.275,-0.63C0.341,-0.63 0.394,-0.616 0.435,-0.589C0.476,-0.562 0.496,-0.521 0.496,-0.466C0.496,-0.417 0.478,-0.375 0.441,-0.34C0.404,-0.305 0.357,-0.277 0.301,-0.257C0.308,-0.258 0.319,-0.258 0.332,-0.258C0.392,-0.258 0.441,-0.243 0.478,-0.214C0.515,-0.184 0.534,-0.143 0.534,-0.092C0.534,-0.045 0.52,-0.002 0.491,0.037C0.462,0.075 0.421,0.105 0.367,0.127C0.313,0.149 0.25,0.16 0.177,0.16Z" style="fill:rgb(237,95,31);fill-rule:nonzero;"/>
                    </g>
                    <path d="M1110.12,1073.64C1113.39,1071.93 1116.27,1069.9 1118.74,1067.55C1122.74,1063.72 1124.74,1059.16 1124.74,1053.89C1124.74,1047.88 1122.47,1043.39 1118,1040.39C1113.72,1037.51 1108.1,1036.03 1101.14,1036.03C1097.8,1036.03 1094.47,1036.5 1091.16,1037.44C1087.88,1038.38 1084.94,1039.52 1082.35,1040.87C1079.69,1042.25 1077.74,1043.55 1076.46,1044.76C1076.01,1045.18 1075.91,1045.86 1076.22,1046.4L1080.25,1053.45C1080.44,1053.79 1080.78,1054.03 1081.17,1054.1C1081.57,1054.17 1081.97,1054.06 1082.27,1053.81C1083.85,1052.48 1085.79,1051.37 1088.1,1050.45C1090.4,1049.54 1092.93,1049.09 1095.71,1049.09C1098.27,1049.09 1100.43,1049.71 1102.16,1050.99C1103.78,1052.19 1104.54,1054.08 1104.54,1056.61C1104.54,1059.14 1103.66,1061.51 1101.94,1063.74C1100.15,1066.07 1097.51,1068.04 1094.05,1069.68C1091.16,1070.97 1088.57,1071.77 1086.26,1072.09C1085.87,1072.15 1085.52,1072.38 1085.31,1072.71C1085.1,1073.05 1085.05,1073.46 1085.17,1073.84L1087.38,1080.59C1087.61,1081.26 1088.31,1081.64 1089,1081.47L1094.63,1080.01C1098.84,1080.28 1102.03,1081.35 1104.15,1083.34C1106.26,1085.3 1107.26,1088.15 1107.26,1091.85C1107.26,1094.59 1106.49,1097.1 1104.97,1099.35C1103.42,1101.64 1101.17,1103.42 1098.24,1104.72C1095.2,1106.06 1091.61,1106.72 1087.45,1106.72C1084.04,1106.72 1080.92,1106.27 1078.09,1105.37C1077.68,1105.24 1077.24,1105.31 1076.89,1105.57C1076.55,1105.82 1076.34,1106.22 1076.34,1106.65L1076.34,1115.11C1076.34,1115.7 1076.73,1116.22 1077.29,1116.39C1078.89,1116.88 1081.05,1117.31 1083.79,1117.69C1086.51,1118.07 1089.01,1118.26 1091.28,1118.26C1098.79,1118.26 1105.33,1117.11 1110.91,1114.84C1116.6,1112.52 1120.95,1109.33 1123.97,1105.29C1127.03,1101.19 1128.57,1096.61 1128.57,1091.55C1128.57,1085.93 1126.5,1081.51 1122.42,1078.26C1119.14,1075.65 1115.04,1074.1 1110.12,1073.64ZM1091.28,1116.92C1089.06,1116.92 1086.63,1116.74 1083.98,1116.37C1081.33,1116 1079.23,1115.58 1077.68,1115.11L1077.68,1106.65C1080.64,1107.59 1083.89,1108.06 1087.45,1108.06C1091.81,1108.06 1095.59,1107.35 1098.78,1105.94C1101.97,1104.54 1104.4,1102.59 1106.08,1100.11C1107.76,1097.62 1108.6,1094.87 1108.6,1091.85C1108.6,1083.59 1103.9,1079.19 1094.5,1078.66L1088.66,1080.17L1086.44,1073.42C1088.86,1073.09 1091.58,1072.25 1094.6,1070.9C1098.29,1069.16 1101.1,1067.05 1103.01,1064.56C1104.92,1062.08 1105.88,1059.43 1105.88,1056.61C1105.88,1053.59 1104.9,1051.35 1102.96,1049.91C1101.01,1048.47 1098.59,1047.75 1095.71,1047.75C1092.75,1047.75 1090.05,1048.23 1087.6,1049.21C1085.15,1050.18 1083.09,1051.37 1081.41,1052.78L1077.38,1045.73C1078.59,1044.59 1080.45,1043.37 1082.97,1042.06C1085.49,1040.75 1088.34,1039.64 1091.53,1038.74C1094.72,1037.83 1097.92,1037.38 1101.14,1037.38C1107.79,1037.38 1113.16,1038.75 1117.26,1041.5C1121.35,1044.26 1123.4,1048.38 1123.4,1053.89C1123.4,1058.79 1121.53,1063.02 1117.81,1066.58C1114.08,1070.13 1109.4,1072.92 1103.76,1074.93C1104.5,1074.87 1105.54,1074.83 1106.88,1074.83C1112.93,1074.83 1117.83,1076.33 1121.59,1079.31C1125.34,1082.3 1127.22,1086.38 1127.22,1091.55C1127.22,1096.31 1125.78,1100.62 1122.89,1104.49C1120.01,1108.34 1115.85,1111.38 1110.41,1113.6C1104.97,1115.81 1098.59,1116.92 1091.28,1116.92Z" style="fill:white;"/>
                </g>
            </g>
            <g transform="matrix(1.09481,0,0,1.08358,-1980.34,-3690.55)">
                <g transform="matrix(157.543,0,0,157.543,1891.99,4574.58)">
                    <path d="M0.264,0.01C0.217,0.01 0.171,0.005 0.126,-0.005C0.081,-0.015 0.044,-0.028 0.016,-0.044L0.078,-0.193C0.103,-0.178 0.133,-0.166 0.168,-0.157C0.203,-0.148 0.236,-0.144 0.269,-0.144C0.295,-0.144 0.313,-0.146 0.324,-0.151C0.334,-0.155 0.339,-0.161 0.339,-0.17C0.339,-0.179 0.333,-0.185 0.32,-0.188C0.307,-0.191 0.285,-0.195 0.256,-0.198C0.211,-0.203 0.173,-0.21 0.142,-0.219C0.111,-0.227 0.083,-0.243 0.06,-0.267C0.036,-0.291 0.024,-0.325 0.024,-0.37C0.024,-0.405 0.035,-0.437 0.056,-0.465C0.077,-0.493 0.109,-0.515 0.152,-0.532C0.194,-0.549 0.245,-0.557 0.304,-0.557C0.345,-0.557 0.386,-0.553 0.426,-0.546C0.465,-0.538 0.499,-0.527 0.527,-0.512L0.465,-0.363C0.417,-0.39 0.364,-0.403 0.307,-0.403C0.258,-0.403 0.233,-0.394 0.233,-0.377C0.233,-0.368 0.24,-0.362 0.253,-0.359C0.266,-0.355 0.287,-0.351 0.316,-0.348C0.361,-0.343 0.399,-0.336 0.43,-0.327C0.46,-0.318 0.488,-0.302 0.512,-0.278C0.535,-0.254 0.547,-0.22 0.547,-0.175C0.547,-0.141 0.536,-0.11 0.515,-0.082C0.494,-0.054 0.462,-0.032 0.419,-0.015C0.376,0.002 0.325,0.01 0.264,0.01Z" style="fill:white;fill-rule:nonzero;"/>
                </g>
                <g transform="matrix(157.543,0,0,157.543,1981.01,4574.58)">
                    <path d="M0.344,0.01C0.282,0.01 0.227,-0.002 0.178,-0.026C0.129,-0.05 0.09,-0.084 0.063,-0.127C0.035,-0.17 0.021,-0.219 0.021,-0.274C0.021,-0.329 0.035,-0.377 0.063,-0.421C0.09,-0.463 0.129,-0.497 0.178,-0.521C0.227,-0.545 0.282,-0.557 0.344,-0.557C0.411,-0.557 0.468,-0.543 0.515,-0.514C0.562,-0.485 0.595,-0.446 0.613,-0.395L0.438,-0.309C0.417,-0.357 0.385,-0.381 0.343,-0.381C0.316,-0.381 0.294,-0.372 0.277,-0.353C0.259,-0.334 0.25,-0.308 0.25,-0.274C0.25,-0.239 0.259,-0.213 0.277,-0.194C0.294,-0.175 0.316,-0.166 0.343,-0.166C0.385,-0.166 0.417,-0.19 0.438,-0.238L0.613,-0.152C0.595,-0.101 0.562,-0.062 0.515,-0.033C0.468,-0.004 0.411,0.01 0.344,0.01Z" style="fill:white;fill-rule:nonzero;"/>
                </g>
                <g transform="matrix(157.543,0,0,157.543,2077.11,4574.58)">
                    <path d="M0.339,0.01C0.278,0.01 0.224,-0.002 0.176,-0.027C0.127,-0.051 0.089,-0.085 0.062,-0.128C0.035,-0.171 0.021,-0.219 0.021,-0.274C0.021,-0.329 0.035,-0.377 0.062,-0.421C0.089,-0.463 0.127,-0.497 0.176,-0.521C0.224,-0.545 0.278,-0.557 0.339,-0.557C0.4,-0.557 0.455,-0.545 0.504,-0.521C0.552,-0.497 0.59,-0.463 0.617,-0.421C0.644,-0.377 0.657,-0.329 0.657,-0.274C0.657,-0.219 0.644,-0.171 0.617,-0.128C0.59,-0.085 0.552,-0.051 0.504,-0.027C0.455,-0.002 0.4,0.01 0.339,0.01ZM0.339,-0.166C0.365,-0.166 0.386,-0.175 0.403,-0.195C0.42,-0.214 0.428,-0.24 0.428,-0.274C0.428,-0.308 0.42,-0.334 0.403,-0.353C0.386,-0.372 0.365,-0.381 0.339,-0.381C0.313,-0.381 0.292,-0.372 0.275,-0.353C0.258,-0.334 0.25,-0.308 0.25,-0.274C0.25,-0.24 0.258,-0.214 0.275,-0.195C0.292,-0.175 0.313,-0.166 0.339,-0.166Z" style="fill:white;fill-rule:nonzero;"/>
                </g>
                <g transform="matrix(157.543,0,0,157.543,2183.92,4574.58)">
                    <path d="M0.265,-0.488C0.305,-0.534 0.364,-0.557 0.442,-0.557L0.442,-0.357C0.424,-0.36 0.407,-0.361 0.392,-0.361C0.315,-0.361 0.276,-0.322 0.276,-0.243L0.276,-0L0.05,-0L0.05,-0.547L0.265,-0.547L0.265,-0.488Z" style="fill:white;fill-rule:nonzero;"/>
                </g>
                <g transform="matrix(157.543,0,0,157.543,2254.97,4574.58)">
                    <path d="M0.632,-0.274C0.632,-0.271 0.631,-0.253 0.629,-0.221L0.249,-0.221C0.257,-0.2 0.27,-0.185 0.289,-0.174C0.308,-0.163 0.331,-0.157 0.359,-0.157C0.383,-0.157 0.403,-0.16 0.42,-0.166C0.436,-0.172 0.454,-0.182 0.473,-0.197L0.591,-0.078C0.538,-0.019 0.458,0.01 0.352,0.01C0.286,0.01 0.228,-0.002 0.178,-0.027C0.128,-0.051 0.089,-0.085 0.062,-0.128C0.035,-0.171 0.021,-0.22 0.021,-0.274C0.021,-0.329 0.035,-0.377 0.062,-0.421C0.089,-0.463 0.126,-0.497 0.173,-0.521C0.22,-0.545 0.272,-0.557 0.331,-0.557C0.386,-0.557 0.437,-0.546 0.483,-0.524C0.528,-0.502 0.565,-0.47 0.592,-0.427C0.619,-0.384 0.632,-0.333 0.632,-0.274ZM0.333,-0.403C0.31,-0.403 0.29,-0.397 0.275,-0.384C0.26,-0.371 0.25,-0.353 0.245,-0.33L0.421,-0.33C0.416,-0.353 0.406,-0.371 0.391,-0.384C0.376,-0.397 0.356,-0.403 0.333,-0.403Z" style="fill:white;fill-rule:nonzero;"/>
                </g>
                <g transform="matrix(157.543,0,0,157.543,2357.85,4574.58)">
                    <path d="M0.415,-0.557C0.463,-0.557 0.507,-0.546 0.548,-0.523C0.588,-0.5 0.62,-0.466 0.644,-0.424C0.667,-0.381 0.679,-0.331 0.679,-0.274C0.679,-0.217 0.667,-0.167 0.644,-0.124C0.62,-0.081 0.588,-0.048 0.548,-0.025C0.507,-0.002 0.463,0.01 0.415,0.01C0.348,0.01 0.298,-0.008 0.265,-0.045L0.265,-0L0.05,-0L0.05,-0.742L0.276,-0.742L0.276,-0.51C0.308,-0.541 0.354,-0.557 0.415,-0.557ZM0.361,-0.166C0.387,-0.166 0.408,-0.175 0.425,-0.195C0.442,-0.214 0.45,-0.24 0.45,-0.274C0.45,-0.308 0.442,-0.334 0.425,-0.353C0.408,-0.372 0.387,-0.381 0.361,-0.381C0.335,-0.381 0.314,-0.372 0.297,-0.353C0.28,-0.334 0.272,-0.308 0.272,-0.274C0.272,-0.24 0.28,-0.214 0.297,-0.195C0.314,-0.175 0.335,-0.166 0.361,-0.166Z" style="fill:white;fill-rule:nonzero;"/>
                </g>
                <g transform="matrix(157.543,0,0,157.543,2468.13,4574.58)">
                    <path d="M0.339,0.01C0.278,0.01 0.224,-0.002 0.176,-0.027C0.127,-0.051 0.089,-0.085 0.062,-0.128C0.035,-0.171 0.021,-0.219 0.021,-0.274C0.021,-0.329 0.035,-0.377 0.062,-0.421C0.089,-0.463 0.127,-0.497 0.176,-0.521C0.224,-0.545 0.278,-0.557 0.339,-0.557C0.4,-0.557 0.455,-0.545 0.504,-0.521C0.552,-0.497 0.59,-0.463 0.617,-0.421C0.644,-0.377 0.657,-0.329 0.657,-0.274C0.657,-0.219 0.644,-0.171 0.617,-0.128C0.59,-0.085 0.552,-0.051 0.504,-0.027C0.455,-0.002 0.4,0.01 0.339,0.01ZM0.339,-0.166C0.365,-0.166 0.386,-0.175 0.403,-0.195C0.42,-0.214 0.428,-0.24 0.428,-0.274C0.428,-0.308 0.42,-0.334 0.403,-0.353C0.386,-0.372 0.365,-0.381 0.339,-0.381C0.313,-0.381 0.292,-0.372 0.275,-0.353C0.258,-0.334 0.25,-0.308 0.25,-0.274C0.25,-0.24 0.258,-0.214 0.275,-0.195C0.292,-0.175 0.313,-0.166 0.339,-0.166Z" style="fill:white;fill-rule:nonzero;"/>
                </g>
                <g transform="matrix(157.543,0,0,157.543,2572.74,4574.58)">
                    <path d="M0.295,-0.557C0.391,-0.557 0.464,-0.536 0.515,-0.493C0.566,-0.45 0.591,-0.383 0.591,-0.294L0.591,-0L0.381,-0L0.381,-0.072C0.355,-0.017 0.303,0.01 0.226,0.01C0.183,0.01 0.146,0.003 0.116,-0.013C0.085,-0.028 0.062,-0.048 0.047,-0.074C0.031,-0.099 0.023,-0.128 0.023,-0.16C0.023,-0.214 0.044,-0.255 0.085,-0.283C0.126,-0.311 0.189,-0.325 0.273,-0.325L0.364,-0.325C0.357,-0.368 0.322,-0.389 0.261,-0.389C0.236,-0.389 0.211,-0.385 0.186,-0.378C0.161,-0.37 0.139,-0.359 0.121,-0.346L0.049,-0.495C0.08,-0.514 0.118,-0.53 0.163,-0.541C0.207,-0.552 0.251,-0.557 0.295,-0.557ZM0.294,-0.126C0.31,-0.126 0.324,-0.13 0.337,-0.139C0.35,-0.148 0.359,-0.161 0.365,-0.178L0.365,-0.216L0.309,-0.216C0.263,-0.216 0.24,-0.201 0.24,-0.17C0.24,-0.157 0.245,-0.147 0.255,-0.139C0.264,-0.13 0.277,-0.126 0.294,-0.126Z" style="fill:white;fill-rule:nonzero;"/>
                </g>
                <g transform="matrix(157.543,0,0,157.543,2673.41,4574.58)">
                    <path d="M0.265,-0.488C0.305,-0.534 0.364,-0.557 0.442,-0.557L0.442,-0.357C0.424,-0.36 0.407,-0.361 0.392,-0.361C0.315,-0.361 0.276,-0.322 0.276,-0.243L0.276,-0L0.05,-0L0.05,-0.547L0.265,-0.547L0.265,-0.488Z" style="fill:white;fill-rule:nonzero;"/>
                </g>
                <g transform="matrix(157.543,0,0,157.543,2744.46,4574.58)">
                    <path d="M0.655,-0.742L0.655,-0L0.44,-0L0.44,-0.045C0.407,-0.008 0.357,0.01 0.29,0.01C0.242,0.01 0.198,-0.002 0.158,-0.025C0.117,-0.048 0.085,-0.081 0.062,-0.124C0.038,-0.167 0.026,-0.217 0.026,-0.274C0.026,-0.331 0.038,-0.381 0.062,-0.424C0.085,-0.466 0.117,-0.5 0.158,-0.523C0.198,-0.546 0.242,-0.557 0.29,-0.557C0.351,-0.557 0.397,-0.541 0.429,-0.51L0.429,-0.742L0.655,-0.742ZM0.344,-0.166C0.37,-0.166 0.391,-0.175 0.408,-0.195C0.425,-0.214 0.433,-0.24 0.433,-0.274C0.433,-0.308 0.425,-0.334 0.408,-0.353C0.391,-0.372 0.37,-0.381 0.344,-0.381C0.318,-0.381 0.297,-0.372 0.28,-0.353C0.263,-0.334 0.255,-0.308 0.255,-0.274C0.255,-0.24 0.263,-0.214 0.28,-0.195C0.297,-0.175 0.318,-0.166 0.344,-0.166Z" style="fill:white;fill-rule:nonzero;"/>
                </g>
            </g>
        </g>
    </g>
</svg>
